# xmcd
#
# Track frame offsets: 
#        182
#        12997
#        27555
#        46457
#        59382
#        75620
#        89437
#        103292
#        116895
#        131317
#
# Disc length: 1982 seconds
#
# Revision: 4
# Processed by: cddbd v1.5.2PL0 Copyright (c) Steve Scherf et al.
# Submitted via: ExactAudioCopy v1.2
#
DISCID=8607bc0a
DTITLE=Kathy Mattea - Lonesome Standard Time
DYEAR=1992
DGENRE=Country
TTITLE0=Lonesome Standard Time
TTITLE1=Lonely At The Bottom
TTITLE2=Standing Knee Deep In A River (Dying Of Thirst)
TTITLE3=Forgive And Forget
TTITLE4=Last Night I Dreamed Of Loving You
TTITLE5=Listen To The Radio
TTITLE6=Slow Boat
TTITLE7=33, 45, 78 (Record Time)
TTITLE8=Amarillo
TTITLE9=Seeds
EXTD=YEAR: 1992 ID3G: 2
EXTT0=
EXTT1=
EXTT2=
EXTT3=
EXTT4=
EXTT5=
EXTT6=
EXTT7=
EXTT8=
EXTT9=
PLAYORDER=
